<svg xmlns="http://www.w3.org/2000/svg" viewBox="0 0 500 280" width="100%" height="100%">
  <defs>
    <style>
      @import url('https://fonts.googleapis.com/css2?family=Poppins:wght@400;500;600;700&amp;display=swap');
      .cf-title {
        font-family: 'Poppins', 'Segoe UI', Roboto, sans-serif;
        font-weight: 600;
        font-size: 52px;
        text-anchor: middle;
      }
      .cf-sub {
        font-family: 'Poppins', 'Segoe UI', Roboto, sans-serif;
        font-weight: 400;
        font-size: 16px;
        text-anchor: middle;
        fill: #a78bfa;
        letter-spacing: 0.5px;
      }
    </style>
  </defs>

  <!-- 1. Centered Graduation Cap (Professional Negative-Space Grid Style) -->
  <g id="cap-icon">
    <!-- Cap Under-side/Base Outline -->
    <path d="M 210,95 L 210,117 C 210,128 290,128 290,117 L 290,95" fill="none" stroke="#611f69" stroke-width="6" stroke-linejoin="round" stroke-linecap="round" />

    <!-- Tassel String -->
    <path d="M 250,75 L 190,85 L 190,115" fill="none" stroke="#611f69" stroke-width="4.5" stroke-linecap="round" stroke-linejoin="round" />
    
    <!-- Tassel Tip -->
    <path d="M 185,115 L 195,115 L 195,130 C 195,133 185,133 185,130 Z" fill="#611f69" />

    <!-- 2x2 Grid Cap Board (4 floating diamonds separated by negative space) -->
    <!-- Top Diamond -->
    <polygon points="250,43 286,59 250,72 214,59" fill="#611f69" />
    
    <!-- Right Diamond -->
    <polygon points="289,60 326,76 290,92 253,76" fill="#611f69" />
    
    <!-- Bottom Diamond -->
    <polygon points="250,78 286,94 250,107 214,94" fill="#611f69" />
    
    <!-- Left Diamond -->
    <polygon points="211,60 247,76 210,92 174,76" fill="#611f69" />
  </g>

  <!-- 2. Centered Typography -->
  <text x="250" y="190" class="cf-title">
    <tspan fill="#611f69">Campus</tspan><tspan fill="#FFFFFF">Grid</tspan>
  </text>

  <!-- 3. Subtext: "powered by Polynexus" -->
  <text x="250" y="232" class="cf-sub">powered by Polynexus</text>
</svg>
